<svg width="224" height="47" viewBox="0 0 224 47" fill="none" xmlns="http://www.w3.org/2000/svg">
<rect x="1" y="1" width="222" height="45" rx="4" fill="white" stroke="#1A1A1A" stroke-width="2"/>
<path d="M68.796 21.22V22.924H71.544V24.508H68.796V26.356H71.904V28H66.744V19.576H71.904V21.22H68.796ZM77.3162 21.232C78.1002 21.232 78.7242 21.488 79.1882 22C79.6602 22.504 79.8962 23.2 79.8962 24.088V28H77.8562V24.364C77.8562 23.916 77.7402 23.568 77.5082 23.32C77.2762 23.072 76.9642 22.948 76.5722 22.948C76.1802 22.948 75.8682 23.072 75.6362 23.32C75.4042 23.568 75.2882 23.916 75.2882 24.364V28H73.2362V21.304H75.2882V22.192C75.4962 21.896 75.7762 21.664 76.1282 21.496C76.4802 21.32 76.8762 21.232 77.3162 21.232ZM80.9141 24.652C80.9141 23.956 81.0541 23.348 81.3341 22.828C81.6221 22.308 82.0181 21.908 82.5221 21.628C83.0341 21.348 83.6181 21.208 84.2741 21.208C85.1141 21.208 85.8141 21.428 86.3741 21.868C86.9421 22.308 87.3141 22.928 87.4901 23.728H85.3061C85.1221 23.216 84.7661 22.96 84.2381 22.96C83.8621 22.96 83.5621 23.108 83.3381 23.404C83.1141 23.692 83.0021 24.108 83.0021 24.652C83.0021 25.196 83.1141 25.616 83.3381 25.912C83.5621 26.2 83.8621 26.344 84.2381 26.344C84.7661 26.344 85.1221 26.088 85.3061 25.576H87.4901C87.3141 26.36 86.9421 26.976 86.3741 27.424C85.8061 27.872 85.1061 28.096 84.2741 28.096C83.6181 28.096 83.0341 27.956 82.5221 27.676C82.0181 27.396 81.6221 26.996 81.3341 26.476C81.0541 25.956 80.9141 25.348 80.9141 24.652ZM91.6358 28.096C90.9798 28.096 90.3878 27.956 89.8598 27.676C89.3398 27.396 88.9278 26.996 88.6238 26.476C88.3278 25.956 88.1798 25.348 88.1798 24.652C88.1798 23.964 88.3318 23.36 88.6357 22.84C88.9398 22.312 89.3558 21.908 89.8838 21.628C90.4118 21.348 91.0038 21.208 91.6598 21.208C92.3158 21.208 92.9078 21.348 93.4358 21.628C93.9638 21.908 94.3798 22.312 94.6838 22.84C94.9878 23.36 95.1398 23.964 95.1398 24.652C95.1398 25.34 94.9838 25.948 94.6718 26.476C94.3678 26.996 93.9478 27.396 93.4118 27.676C92.8838 27.956 92.2918 28.096 91.6358 28.096ZM91.6358 26.32C92.0278 26.32 92.3598 26.176 92.6318 25.888C92.9118 25.6 93.0518 25.188 93.0518 24.652C93.0518 24.116 92.9158 23.704 92.6438 23.416C92.3798 23.128 92.0518 22.984 91.6598 22.984C91.2598 22.984 90.9278 23.128 90.6638 23.416C90.3998 23.696 90.2678 24.108 90.2678 24.652C90.2678 25.188 90.3958 25.6 90.6518 25.888C90.9158 26.176 91.2438 26.32 91.6358 26.32ZM100.308 21.232C101.092 21.232 101.716 21.488 102.18 22C102.652 22.504 102.888 23.2 102.888 24.088V28H100.848V24.364C100.848 23.916 100.732 23.568 100.5 23.32C100.268 23.072 99.9564 22.948 99.5644 22.948C99.1724 22.948 98.8604 23.072 98.6284 23.32C98.3964 23.568 98.2804 23.916 98.2804 24.364V28H96.2284V21.304H98.2804V22.192C98.4884 21.896 98.7684 21.664 99.1204 21.496C99.4724 21.32 99.8684 21.232 100.308 21.232ZM108.046 26.26V28H107.002C106.258 28 105.678 27.82 105.262 27.46C104.846 27.092 104.638 26.496 104.638 25.672V23.008H103.822V21.304H104.638V19.672H106.69V21.304H108.034V23.008H106.69V25.696C106.69 25.896 106.738 26.04 106.834 26.128C106.93 26.216 107.09 26.26 107.314 26.26H108.046ZM111.241 22.42C111.481 22.052 111.781 21.764 112.141 21.556C112.501 21.34 112.901 21.232 113.341 21.232V23.404H112.777C112.265 23.404 111.881 23.516 111.625 23.74C111.369 23.956 111.241 24.34 111.241 24.892V28H109.189V21.304H111.241V22.42ZM113.914 24.64C113.914 23.952 114.042 23.348 114.298 22.828C114.562 22.308 114.918 21.908 115.366 21.628C115.814 21.348 116.314 21.208 116.866 21.208C117.338 21.208 117.75 21.304 118.102 21.496C118.462 21.688 118.738 21.94 118.93 22.252V21.304H120.982V28H118.93V27.052C118.73 27.364 118.45 27.616 118.09 27.808C117.738 28 117.326 28.096 116.854 28.096C116.31 28.096 115.814 27.956 115.366 27.676C114.918 27.388 114.562 26.984 114.298 26.464C114.042 25.936 113.914 25.328 113.914 24.64ZM118.93 24.652C118.93 24.14 118.786 23.736 118.498 23.44C118.218 23.144 117.874 22.996 117.466 22.996C117.058 22.996 116.71 23.144 116.422 23.44C116.142 23.728 116.002 24.128 116.002 24.64C116.002 25.152 116.142 25.56 116.422 25.864C116.71 26.16 117.058 26.308 117.466 26.308C117.874 26.308 118.218 26.16 118.498 25.864C118.786 25.568 118.93 25.164 118.93 24.652ZM124.519 22.42C124.759 22.052 125.059 21.764 125.419 21.556C125.779 21.34 126.179 21.232 126.619 21.232V23.404H126.055C125.543 23.404 125.159 23.516 124.903 23.74C124.647 23.956 124.519 24.34 124.519 24.892V28H122.467V21.304H124.519V22.42ZM133.19 28.096C132.534 28.096 131.942 27.956 131.414 27.676C130.894 27.396 130.482 26.996 130.178 26.476C129.882 25.956 129.734 25.348 129.734 24.652C129.734 23.964 129.886 23.36 130.19 22.84C130.494 22.312 130.91 21.908 131.438 21.628C131.966 21.348 132.558 21.208 133.214 21.208C133.87 21.208 134.462 21.348 134.99 21.628C135.518 21.908 135.934 22.312 136.238 22.84C136.542 23.36 136.694 23.964 136.694 24.652C136.694 25.34 136.538 25.948 136.226 26.476C135.922 26.996 135.502 27.396 134.966 27.676C134.438 27.956 133.846 28.096 133.19 28.096ZM133.19 26.32C133.582 26.32 133.914 26.176 134.186 25.888C134.466 25.6 134.606 25.188 134.606 24.652C134.606 24.116 134.47 23.704 134.198 23.416C133.934 23.128 133.606 22.984 133.214 22.984C132.814 22.984 132.482 23.128 132.218 23.416C131.954 23.696 131.822 24.108 131.822 24.652C131.822 25.188 131.95 25.6 132.206 25.888C132.47 26.176 132.798 26.32 133.19 26.32ZM144.395 21.304V28H142.343V27.088C142.135 27.384 141.851 27.624 141.491 27.808C141.139 27.984 140.747 28.072 140.315 28.072C139.803 28.072 139.351 27.96 138.959 27.736C138.567 27.504 138.263 27.172 138.047 26.74C137.831 26.308 137.723 25.8 137.723 25.216V21.304H139.763V24.94C139.763 25.388 139.879 25.736 140.111 25.984C140.343 26.232 140.655 26.356 141.047 26.356C141.447 26.356 141.763 26.232 141.995 25.984C142.227 25.736 142.343 25.388 142.343 24.94V21.304H144.395ZM149.601 26.26V28H148.557C147.813 28 147.233 27.82 146.817 27.46C146.401 27.092 146.193 26.496 146.193 25.672V23.008H145.377V21.304H146.193V19.672H148.245V21.304H149.589V23.008H148.245V25.696C148.245 25.896 148.293 26.04 148.389 26.128C148.485 26.216 148.645 26.26 148.869 26.26H149.601ZM152.796 22.42C153.036 22.052 153.336 21.764 153.696 21.556C154.056 21.34 154.456 21.232 154.896 21.232V23.404H154.332C153.82 23.404 153.436 23.516 153.18 23.74C152.924 23.956 152.796 24.34 152.796 24.892V28H150.744V21.304H152.796V22.42ZM158.925 28.096C158.269 28.096 157.677 27.956 157.149 27.676C156.629 27.396 156.217 26.996 155.913 26.476C155.617 25.956 155.469 25.348 155.469 24.652C155.469 23.964 155.621 23.36 155.925 22.84C156.229 22.312 156.645 21.908 157.173 21.628C157.701 21.348 158.293 21.208 158.949 21.208C159.605 21.208 160.197 21.348 160.725 21.628C161.253 21.908 161.669 22.312 161.973 22.84C162.277 23.36 162.429 23.964 162.429 24.652C162.429 25.34 162.273 25.948 161.961 26.476C161.657 26.996 161.237 27.396 160.701 27.676C160.173 27.956 159.581 28.096 158.925 28.096ZM158.925 26.32C159.317 26.32 159.649 26.176 159.921 25.888C160.201 25.6 160.341 25.188 160.341 24.652C160.341 24.116 160.205 23.704 159.933 23.416C159.669 23.128 159.341 22.984 158.949 22.984C158.549 22.984 158.217 23.128 157.953 23.416C157.689 23.696 157.557 24.108 157.557 24.652C157.557 25.188 157.685 25.6 157.941 25.888C158.205 26.176 158.533 26.32 158.925 26.32ZM169.42 23.008H168.316V28H166.264V23.008H165.52V21.304H166.264V21.112C166.264 20.288 166.5 19.664 166.972 19.24C167.444 18.808 168.136 18.592 169.048 18.592C169.2 18.592 169.312 18.596 169.384 18.604V20.344C168.992 20.32 168.716 20.376 168.556 20.512C168.396 20.648 168.316 20.892 168.316 21.244V21.304H169.42V23.008ZM171.417 20.608C171.057 20.608 170.761 20.504 170.529 20.296C170.305 20.08 170.193 19.816 170.193 19.504C170.193 19.184 170.305 18.92 170.529 18.712C170.761 18.496 171.057 18.388 171.417 18.388C171.769 18.388 172.057 18.496 172.281 18.712C172.513 18.92 172.629 19.184 172.629 19.504C172.629 19.816 172.513 20.08 172.281 20.296C172.057 20.504 171.769 20.608 171.417 20.608ZM172.437 21.304V28H170.385V21.304H172.437ZM175.976 19.12V28H173.924V19.12H175.976ZM186.007 21.232C186.839 21.232 187.499 21.484 187.987 21.988C188.483 22.492 188.731 23.192 188.731 24.088V28H186.691V24.364C186.691 23.932 186.575 23.6 186.343 23.368C186.119 23.128 185.807 23.008 185.407 23.008C185.007 23.008 184.691 23.128 184.459 23.368C184.235 23.6 184.123 23.932 184.123 24.364V28H182.083V24.364C182.083 23.932 181.967 23.6 181.735 23.368C181.511 23.128 181.199 23.008 180.799 23.008C180.399 23.008 180.083 23.128 179.851 23.368C179.627 23.6 179.515 23.932 179.515 24.364V28H177.463V21.304H179.515V22.144C179.723 21.864 179.995 21.644 180.331 21.484C180.667 21.316 181.047 21.232 181.471 21.232C181.975 21.232 182.423 21.34 182.815 21.556C183.215 21.772 183.527 22.08 183.751 22.48C183.983 22.112 184.299 21.812 184.699 21.58C185.099 21.348 185.535 21.232 186.007 21.232ZM196.478 24.544C196.478 24.736 196.466 24.936 196.442 25.144H191.798C191.83 25.56 191.962 25.88 192.194 26.104C192.434 26.32 192.726 26.428 193.07 26.428C193.582 26.428 193.938 26.212 194.138 25.78H196.322C196.21 26.22 196.006 26.616 195.71 26.968C195.422 27.32 195.058 27.596 194.618 27.796C194.178 27.996 193.686 28.096 193.142 28.096C192.486 28.096 191.902 27.956 191.39 27.676C190.878 27.396 190.478 26.996 190.19 26.476C189.902 25.956 189.758 25.348 189.758 24.652C189.758 23.956 189.898 23.348 190.178 22.828C190.466 22.308 190.866 21.908 191.378 21.628C191.89 21.348 192.478 21.208 193.142 21.208C193.79 21.208 194.366 21.344 194.87 21.616C195.374 21.888 195.766 22.276 196.046 22.78C196.334 23.284 196.478 23.872 196.478 24.544ZM194.378 24.004C194.378 23.652 194.258 23.372 194.018 23.164C193.778 22.956 193.478 22.852 193.118 22.852C192.774 22.852 192.482 22.952 192.242 23.152C192.01 23.352 191.866 23.636 191.81 24.004H194.378Z" fill="black"/>
<g clip-path="url(#clip0_701_24)">
<path d="M42.3999 11.1341C44.5892 12.9964 46.7784 14.8602 48.9568 16.7349C46.8076 18.656 44.5732 20.4923 42.3904 22.38C42.3955 21.1169 42.3824 19.8545 42.3949 18.5921C41.0102 18.5943 39.6255 18.5842 38.2415 18.5966C37.5762 18.598 36.9501 18.9284 36.5019 19.4053C32.5264 23.5198 28.5429 27.6272 24.5689 31.7432C24.1272 32.199 23.5114 32.4968 22.8679 32.491C20.3398 32.507 17.8109 32.4787 15.2836 32.5076C14.3441 32.4801 13.5381 31.6337 13.5389 30.704C13.4922 29.696 14.3857 28.8271 15.3812 28.7973C17.389 28.7785 19.399 28.8082 21.4068 28.7836C22.1392 28.7792 22.7842 28.3546 23.2462 27.8184C27.1612 23.7648 31.0806 19.7146 34.9978 15.6624C35.438 15.1848 36.0706 14.8906 36.7236 14.8761C38.614 14.8681 40.5052 14.8834 42.3949 14.8688C42.3911 13.624 42.3809 12.3791 42.3999 11.1341Z" fill="#BA000D"/>
<path d="M14.9487 14.8675C17.6816 14.8449 20.4241 14.8696 23.1614 14.8617C23.8668 14.8305 24.5854 15.0936 25.0649 15.6175C26.2025 16.7814 27.3278 17.9589 28.4589 19.1291C28.9223 19.6002 29.1767 20.2857 29.0156 20.9393C28.84 21.7393 28.0697 22.3755 27.2403 22.3676C26.6771 22.393 26.1581 22.1075 25.7434 21.7531C24.968 20.9314 24.2246 20.0777 23.4369 19.2668C22.9858 18.8103 22.3372 18.5849 21.7002 18.5936C19.6604 18.5849 17.6205 18.5994 15.5806 18.5871C14.7687 18.5625 13.9029 18.1812 13.6034 17.3798C13.1421 16.3595 13.8475 15.0639 14.9487 14.8675Z" fill="#BA000D"/>
<path d="M31.6225 25.28C32.3272 24.7199 33.432 24.8011 34.0537 25.4481C34.9055 26.3162 35.7393 27.2025 36.592 28.0699C37.0351 28.5344 37.6735 28.7996 38.317 28.7931C39.6769 28.788 41.0368 28.7989 42.3975 28.7866C42.3836 27.5467 42.3924 26.3067 42.3946 25.0669C44.6006 26.9249 46.7898 28.8025 48.9755 30.6844C46.7928 32.5649 44.5983 34.4316 42.4003 36.294C42.3726 35.0258 42.4032 33.757 42.3865 32.4888C40.4939 32.4714 38.6013 32.4873 36.7086 32.4808C36.0564 32.475 35.4281 32.1656 34.9916 31.6902C33.7724 30.4388 32.5334 29.2069 31.3266 27.9446C30.6277 27.1859 30.7829 25.8735 31.6225 25.28Z" fill="#BA000D"/>
</g>
<defs>
<clipPath id="clip0_701_24">
<rect x="13.4355" y="11.0645" width="35.5645" height="25.2903" rx="5" fill="white"/>
</clipPath>
</defs>
</svg>
