<svg width="181" height="47" viewBox="0 0 181 47" fill="none" xmlns="http://www.w3.org/2000/svg">
<rect x="1" y="1" width="178.984" height="45" rx="4" fill="#E9E6E3" stroke="#1A1A1A" stroke-width="2"/>
<path d="M68.796 20.22V21.924H71.544V23.508H68.796V25.356H71.904V27H66.744V18.576H71.904V20.22H68.796ZM77.3162 20.232C78.1002 20.232 78.7242 20.488 79.1882 21C79.6602 21.504 79.8962 22.2 79.8962 23.088V27H77.8562V23.364C77.8562 22.916 77.7402 22.568 77.5082 22.32C77.2762 22.072 76.9642 21.948 76.5722 21.948C76.1802 21.948 75.8682 22.072 75.6362 22.32C75.4042 22.568 75.2882 22.916 75.2882 23.364V27H73.2362V20.304H75.2882V21.192C75.4962 20.896 75.7762 20.664 76.1282 20.496C76.4802 20.32 76.8762 20.232 77.3162 20.232ZM80.9141 23.652C80.9141 22.956 81.0541 22.348 81.3341 21.828C81.6221 21.308 82.0181 20.908 82.5221 20.628C83.0341 20.348 83.6181 20.208 84.2741 20.208C85.1141 20.208 85.8141 20.428 86.3741 20.868C86.9421 21.308 87.3141 21.928 87.4901 22.728H85.3061C85.1221 22.216 84.7661 21.96 84.2381 21.96C83.8621 21.96 83.5621 22.108 83.3381 22.404C83.1141 22.692 83.0021 23.108 83.0021 23.652C83.0021 24.196 83.1141 24.616 83.3381 24.912C83.5621 25.2 83.8621 25.344 84.2381 25.344C84.7661 25.344 85.1221 25.088 85.3061 24.576H87.4901C87.3141 25.36 86.9421 25.976 86.3741 26.424C85.8061 26.872 85.1061 27.096 84.2741 27.096C83.6181 27.096 83.0341 26.956 82.5221 26.676C82.0181 26.396 81.6221 25.996 81.3341 25.476C81.0541 24.956 80.9141 24.348 80.9141 23.652ZM91.6358 27.096C90.9798 27.096 90.3878 26.956 89.8598 26.676C89.3398 26.396 88.9278 25.996 88.6238 25.476C88.3278 24.956 88.1798 24.348 88.1798 23.652C88.1798 22.964 88.3318 22.36 88.6357 21.84C88.9398 21.312 89.3558 20.908 89.8838 20.628C90.4118 20.348 91.0038 20.208 91.6598 20.208C92.3158 20.208 92.9078 20.348 93.4358 20.628C93.9638 20.908 94.3798 21.312 94.6838 21.84C94.9878 22.36 95.1398 22.964 95.1398 23.652C95.1398 24.34 94.9838 24.948 94.6718 25.476C94.3678 25.996 93.9478 26.396 93.4118 26.676C92.8838 26.956 92.2918 27.096 91.6358 27.096ZM91.6358 25.32C92.0278 25.32 92.3598 25.176 92.6318 24.888C92.9118 24.6 93.0518 24.188 93.0518 23.652C93.0518 23.116 92.9158 22.704 92.6438 22.416C92.3798 22.128 92.0518 21.984 91.6598 21.984C91.2598 21.984 90.9278 22.128 90.6638 22.416C90.3998 22.696 90.2678 23.108 90.2678 23.652C90.2678 24.188 90.3958 24.6 90.6518 24.888C90.9158 25.176 91.2438 25.32 91.6358 25.32ZM100.308 20.232C101.092 20.232 101.716 20.488 102.18 21C102.652 21.504 102.888 22.2 102.888 23.088V27H100.848V23.364C100.848 22.916 100.732 22.568 100.5 22.32C100.268 22.072 99.9564 21.948 99.5644 21.948C99.1724 21.948 98.8604 22.072 98.6284 22.32C98.3964 22.568 98.2804 22.916 98.2804 23.364V27H96.2284V20.304H98.2804V21.192C98.4884 20.896 98.7684 20.664 99.1204 20.496C99.4724 20.32 99.8684 20.232 100.308 20.232ZM108.046 25.26V27H107.002C106.258 27 105.678 26.82 105.262 26.46C104.846 26.092 104.638 25.496 104.638 24.672V22.008H103.822V20.304H104.638V18.672H106.69V20.304H108.034V22.008H106.69V24.696C106.69 24.896 106.738 25.04 106.834 25.128C106.93 25.216 107.09 25.26 107.314 25.26H108.046ZM111.241 21.42C111.481 21.052 111.781 20.764 112.141 20.556C112.501 20.34 112.901 20.232 113.341 20.232V22.404H112.777C112.265 22.404 111.881 22.516 111.625 22.74C111.369 22.956 111.241 23.34 111.241 23.892V27H109.189V20.304H111.241V21.42ZM113.914 23.64C113.914 22.952 114.042 22.348 114.298 21.828C114.562 21.308 114.918 20.908 115.366 20.628C115.814 20.348 116.314 20.208 116.866 20.208C117.338 20.208 117.75 20.304 118.102 20.496C118.462 20.688 118.738 20.94 118.93 21.252V20.304H120.982V27H118.93V26.052C118.73 26.364 118.45 26.616 118.09 26.808C117.738 27 117.326 27.096 116.854 27.096C116.31 27.096 115.814 26.956 115.366 26.676C114.918 26.388 114.562 25.984 114.298 25.464C114.042 24.936 113.914 24.328 113.914 23.64ZM118.93 23.652C118.93 23.14 118.786 22.736 118.498 22.44C118.218 22.144 117.874 21.996 117.466 21.996C117.058 21.996 116.71 22.144 116.422 22.44C116.142 22.728 116.002 23.128 116.002 23.64C116.002 24.152 116.142 24.56 116.422 24.864C116.71 25.16 117.058 25.308 117.466 25.308C117.874 25.308 118.218 25.16 118.498 24.864C118.786 24.568 118.93 24.164 118.93 23.652ZM124.519 21.42C124.759 21.052 125.059 20.764 125.419 20.556C125.779 20.34 126.179 20.232 126.619 20.232V22.404H126.055C125.543 22.404 125.159 22.516 124.903 22.74C124.647 22.956 124.519 23.34 124.519 23.892V27H122.467V20.304H124.519V21.42ZM133.502 22.008H132.398V27H130.346V22.008H129.602V20.304H130.346V20.112C130.346 19.288 130.582 18.664 131.054 18.24C131.526 17.808 132.218 17.592 133.13 17.592C133.282 17.592 133.394 17.596 133.466 17.604V19.344C133.074 19.32 132.798 19.376 132.638 19.512C132.478 19.648 132.398 19.892 132.398 20.244V20.304H133.502V22.008ZM135.499 19.608C135.139 19.608 134.843 19.504 134.611 19.296C134.387 19.08 134.275 18.816 134.275 18.504C134.275 18.184 134.387 17.92 134.611 17.712C134.843 17.496 135.139 17.388 135.499 17.388C135.851 17.388 136.139 17.496 136.363 17.712C136.595 17.92 136.711 18.184 136.711 18.504C136.711 18.816 136.595 19.08 136.363 19.296C136.139 19.504 135.851 19.608 135.499 19.608ZM136.519 20.304V27H134.467V20.304H136.519ZM140.058 18.12V27H138.006V18.12H140.058ZM150.089 20.232C150.921 20.232 151.581 20.484 152.069 20.988C152.565 21.492 152.813 22.192 152.813 23.088V27H150.773V23.364C150.773 22.932 150.657 22.6 150.425 22.368C150.201 22.128 149.889 22.008 149.489 22.008C149.089 22.008 148.773 22.128 148.541 22.368C148.317 22.6 148.205 22.932 148.205 23.364V27H146.165V23.364C146.165 22.932 146.049 22.6 145.817 22.368C145.593 22.128 145.281 22.008 144.881 22.008C144.481 22.008 144.165 22.128 143.933 22.368C143.709 22.6 143.597 22.932 143.597 23.364V27H141.545V20.304H143.597V21.144C143.805 20.864 144.077 20.644 144.413 20.484C144.749 20.316 145.129 20.232 145.553 20.232C146.057 20.232 146.505 20.34 146.897 20.556C147.297 20.772 147.609 21.08 147.833 21.48C148.065 21.112 148.381 20.812 148.781 20.58C149.181 20.348 149.617 20.232 150.089 20.232ZM160.56 23.544C160.56 23.736 160.548 23.936 160.524 24.144H155.88C155.912 24.56 156.044 24.88 156.276 25.104C156.516 25.32 156.808 25.428 157.152 25.428C157.664 25.428 158.02 25.212 158.22 24.78H160.404C160.292 25.22 160.088 25.616 159.792 25.968C159.504 26.32 159.14 26.596 158.7 26.796C158.26 26.996 157.768 27.096 157.224 27.096C156.568 27.096 155.984 26.956 155.472 26.676C154.96 26.396 154.56 25.996 154.272 25.476C153.984 24.956 153.84 24.348 153.84 23.652C153.84 22.956 153.98 22.348 154.26 21.828C154.548 21.308 154.948 20.908 155.46 20.628C155.972 20.348 156.56 20.208 157.224 20.208C157.872 20.208 158.448 20.344 158.952 20.616C159.456 20.888 159.848 21.276 160.128 21.78C160.416 22.284 160.56 22.872 160.56 23.544ZM158.46 23.004C158.46 22.652 158.34 22.372 158.1 22.164C157.86 21.956 157.56 21.852 157.2 21.852C156.856 21.852 156.564 21.952 156.324 22.152C156.092 22.352 155.948 22.636 155.892 23.004H158.46Z" fill="black"/>
<g clip-path="url(#clip0_701_24)">
<path d="M42.3999 11.1341C44.5892 12.9964 46.7784 14.8602 48.9568 16.7349C46.8076 18.656 44.5732 20.4923 42.3904 22.38C42.3955 21.1169 42.3824 19.8545 42.3949 18.5921C41.0102 18.5943 39.6255 18.5842 38.2415 18.5966C37.5762 18.598 36.9501 18.9284 36.5019 19.4053C32.5264 23.5198 28.5429 27.6272 24.5689 31.7432C24.1272 32.199 23.5114 32.4968 22.8679 32.491C20.3398 32.507 17.8109 32.4787 15.2836 32.5076C14.3441 32.4801 13.5381 31.6337 13.5389 30.704C13.4922 29.696 14.3857 28.8271 15.3812 28.7973C17.389 28.7785 19.399 28.8082 21.4068 28.7836C22.1392 28.7792 22.7842 28.3546 23.2462 27.8184C27.1612 23.7648 31.0806 19.7146 34.9978 15.6624C35.438 15.1848 36.0706 14.8906 36.7236 14.8761C38.614 14.8681 40.5052 14.8834 42.3949 14.8688C42.3911 13.624 42.3809 12.3791 42.3999 11.1341Z" fill="url(#paint0_linear_701_24)"/>
<path d="M14.9487 14.8675C17.6816 14.8449 20.4241 14.8696 23.1614 14.8617C23.8668 14.8305 24.5854 15.0936 25.0649 15.6175C26.2025 16.7814 27.3278 17.9589 28.4589 19.1291C28.9223 19.6002 29.1767 20.2857 29.0156 20.9393C28.84 21.7393 28.0697 22.3755 27.2403 22.3676C26.6771 22.393 26.1581 22.1075 25.7434 21.7531C24.968 20.9314 24.2246 20.0777 23.4369 19.2668C22.9858 18.8103 22.3372 18.5849 21.7002 18.5936C19.6604 18.5849 17.6205 18.5994 15.5806 18.5871C14.7687 18.5625 13.9029 18.1812 13.6034 17.3798C13.1421 16.3595 13.8475 15.0639 14.9487 14.8675Z" fill="#8C8C8C"/>
<path d="M31.6225 25.28C32.3272 24.7199 33.432 24.8011 34.0537 25.4481C34.9055 26.3162 35.7393 27.2025 36.592 28.0699C37.0351 28.5344 37.6735 28.7996 38.317 28.7931C39.6769 28.788 41.0368 28.7989 42.3975 28.7866C42.3836 27.5467 42.3924 26.3067 42.3946 25.0669C44.6006 26.9249 46.7898 28.8025 48.9755 30.6844C46.7928 32.5649 44.5983 34.4316 42.4003 36.294C42.3726 35.0258 42.4032 33.757 42.3865 32.4888C40.4939 32.4714 38.6013 32.4873 36.7086 32.4808C36.0564 32.475 35.4281 32.1656 34.9916 31.6902C33.7724 30.4388 32.5334 29.2069 31.3266 27.9446C30.6277 27.1859 30.7829 25.8735 31.6225 25.28Z" fill="#8C8C8C"/>
</g>
<defs>
<linearGradient id="paint0_linear_701_24" x1="31.247" y1="11.1341" x2="31.2182" y2="33.6374" gradientUnits="userSpaceOnUse">
<stop stop-color="#C12A23"/>
<stop offset="0.932655" stop-color="#102D71" stop-opacity="0.63"/>
<stop offset="0.9999" stop-color="#001AFF" stop-opacity="0.0260417"/>
<stop offset="1" stop-color="#0A3068" stop-opacity="0.66"/>
</linearGradient>
<clipPath id="clip0_701_24">
<rect x="13.4355" y="11.0645" width="35.5645" height="25.2903" rx="5" fill="white"/>
</clipPath>
</defs>
</svg>
