<svg width="207" height="47" viewBox="0 0 207 47" fill="none" xmlns="http://www.w3.org/2000/svg">
<rect x="1" y="1" width="205" height="45" rx="4" fill="white" stroke="#1A1A1A" stroke-width="2"/>
<path d="M68.796 21.22V22.924H71.544V24.508H68.796V26.356H71.904V28H66.744V19.576H71.904V21.22H68.796ZM77.3162 21.232C78.1002 21.232 78.7242 21.488 79.1882 22C79.6602 22.504 79.8962 23.2 79.8962 24.088V28H77.8562V24.364C77.8562 23.916 77.7402 23.568 77.5082 23.32C77.2762 23.072 76.9642 22.948 76.5722 22.948C76.1802 22.948 75.8682 23.072 75.6362 23.32C75.4042 23.568 75.2882 23.916 75.2882 24.364V28H73.2362V21.304H75.2882V22.192C75.4962 21.896 75.7762 21.664 76.1282 21.496C76.4802 21.32 76.8762 21.232 77.3162 21.232ZM80.9141 24.652C80.9141 23.956 81.0541 23.348 81.3341 22.828C81.6221 22.308 82.0181 21.908 82.5221 21.628C83.0341 21.348 83.6181 21.208 84.2741 21.208C85.1141 21.208 85.8141 21.428 86.3741 21.868C86.9421 22.308 87.3141 22.928 87.4901 23.728H85.3061C85.1221 23.216 84.7661 22.96 84.2381 22.96C83.8621 22.96 83.5621 23.108 83.3381 23.404C83.1141 23.692 83.0021 24.108 83.0021 24.652C83.0021 25.196 83.1141 25.616 83.3381 25.912C83.5621 26.2 83.8621 26.344 84.2381 26.344C84.7661 26.344 85.1221 26.088 85.3061 25.576H87.4901C87.3141 26.36 86.9421 26.976 86.3741 27.424C85.8061 27.872 85.1061 28.096 84.2741 28.096C83.6181 28.096 83.0341 27.956 82.5221 27.676C82.0181 27.396 81.6221 26.996 81.3341 26.476C81.0541 25.956 80.9141 25.348 80.9141 24.652ZM91.6358 28.096C90.9798 28.096 90.3878 27.956 89.8598 27.676C89.3398 27.396 88.9278 26.996 88.6238 26.476C88.3278 25.956 88.1798 25.348 88.1798 24.652C88.1798 23.964 88.3318 23.36 88.6357 22.84C88.9398 22.312 89.3558 21.908 89.8838 21.628C90.4118 21.348 91.0038 21.208 91.6598 21.208C92.3158 21.208 92.9078 21.348 93.4358 21.628C93.9638 21.908 94.3798 22.312 94.6838 22.84C94.9878 23.36 95.1398 23.964 95.1398 24.652C95.1398 25.34 94.9838 25.948 94.6718 26.476C94.3678 26.996 93.9478 27.396 93.4118 27.676C92.8838 27.956 92.2918 28.096 91.6358 28.096ZM91.6358 26.32C92.0278 26.32 92.3598 26.176 92.6318 25.888C92.9118 25.6 93.0518 25.188 93.0518 24.652C93.0518 24.116 92.9158 23.704 92.6438 23.416C92.3798 23.128 92.0518 22.984 91.6598 22.984C91.2598 22.984 90.9278 23.128 90.6638 23.416C90.3998 23.696 90.2678 24.108 90.2678 24.652C90.2678 25.188 90.3958 25.6 90.6518 25.888C90.9158 26.176 91.2438 26.32 91.6358 26.32ZM100.308 21.232C101.092 21.232 101.716 21.488 102.18 22C102.652 22.504 102.888 23.2 102.888 24.088V28H100.848V24.364C100.848 23.916 100.732 23.568 100.5 23.32C100.268 23.072 99.9564 22.948 99.5644 22.948C99.1724 22.948 98.8604 23.072 98.6284 23.32C98.3964 23.568 98.2804 23.916 98.2804 24.364V28H96.2284V21.304H98.2804V22.192C98.4884 21.896 98.7684 21.664 99.1204 21.496C99.4724 21.32 99.8684 21.232 100.308 21.232ZM108.046 26.26V28H107.002C106.258 28 105.678 27.82 105.262 27.46C104.846 27.092 104.638 26.496 104.638 25.672V23.008H103.822V21.304H104.638V19.672H106.69V21.304H108.034V23.008H106.69V25.696C106.69 25.896 106.738 26.04 106.834 26.128C106.93 26.216 107.09 26.26 107.314 26.26H108.046ZM111.241 22.42C111.481 22.052 111.781 21.764 112.141 21.556C112.501 21.34 112.901 21.232 113.341 21.232V23.404H112.777C112.265 23.404 111.881 23.516 111.625 23.74C111.369 23.956 111.241 24.34 111.241 24.892V28H109.189V21.304H111.241V22.42ZM113.914 24.64C113.914 23.952 114.042 23.348 114.298 22.828C114.562 22.308 114.918 21.908 115.366 21.628C115.814 21.348 116.314 21.208 116.866 21.208C117.338 21.208 117.75 21.304 118.102 21.496C118.462 21.688 118.738 21.94 118.93 22.252V21.304H120.982V28H118.93V27.052C118.73 27.364 118.45 27.616 118.09 27.808C117.738 28 117.326 28.096 116.854 28.096C116.31 28.096 115.814 27.956 115.366 27.676C114.918 27.388 114.562 26.984 114.298 26.464C114.042 25.936 113.914 25.328 113.914 24.64ZM118.93 24.652C118.93 24.14 118.786 23.736 118.498 23.44C118.218 23.144 117.874 22.996 117.466 22.996C117.058 22.996 116.71 23.144 116.422 23.44C116.142 23.728 116.002 24.128 116.002 24.64C116.002 25.152 116.142 25.56 116.422 25.864C116.71 26.16 117.058 26.308 117.466 26.308C117.874 26.308 118.218 26.16 118.498 25.864C118.786 25.568 118.93 25.164 118.93 24.652ZM124.519 22.42C124.759 22.052 125.059 21.764 125.419 21.556C125.779 21.34 126.179 21.232 126.619 21.232V23.404H126.055C125.543 23.404 125.159 23.516 124.903 23.74C124.647 23.956 124.519 24.34 124.519 24.892V28H122.467V21.304H124.519V22.42ZM136.754 21.304V28H134.702V27.088C134.494 27.384 134.21 27.624 133.85 27.808C133.498 27.984 133.106 28.072 132.674 28.072C132.162 28.072 131.71 27.96 131.318 27.736C130.926 27.504 130.622 27.172 130.406 26.74C130.19 26.308 130.082 25.8 130.082 25.216V21.304H132.122V24.94C132.122 25.388 132.238 25.736 132.47 25.984C132.702 26.232 133.014 26.356 133.406 26.356C133.806 26.356 134.122 26.232 134.354 25.984C134.586 25.736 134.702 25.388 134.702 24.94V21.304H136.754ZM146.772 21.232C147.604 21.232 148.264 21.484 148.752 21.988C149.248 22.492 149.496 23.192 149.496 24.088V28H147.456V24.364C147.456 23.932 147.34 23.6 147.108 23.368C146.884 23.128 146.572 23.008 146.172 23.008C145.772 23.008 145.456 23.128 145.224 23.368C145 23.6 144.888 23.932 144.888 24.364V28H142.848V24.364C142.848 23.932 142.732 23.6 142.5 23.368C142.276 23.128 141.964 23.008 141.564 23.008C141.164 23.008 140.848 23.128 140.616 23.368C140.392 23.6 140.28 23.932 140.28 24.364V28H138.228V21.304H140.28V22.144C140.488 21.864 140.76 21.644 141.096 21.484C141.432 21.316 141.812 21.232 142.236 21.232C142.74 21.232 143.188 21.34 143.58 21.556C143.98 21.772 144.292 22.08 144.516 22.48C144.748 22.112 145.064 21.812 145.464 21.58C145.864 21.348 146.3 21.232 146.772 21.232ZM156.834 23.008H155.73V28H153.678V23.008H152.934V21.304H153.678V21.112C153.678 20.288 153.914 19.664 154.386 19.24C154.858 18.808 155.55 18.592 156.462 18.592C156.614 18.592 156.726 18.596 156.798 18.604V20.344C156.406 20.32 156.13 20.376 155.97 20.512C155.81 20.648 155.73 20.892 155.73 21.244V21.304H156.834V23.008ZM158.831 20.608C158.471 20.608 158.175 20.504 157.943 20.296C157.719 20.08 157.607 19.816 157.607 19.504C157.607 19.184 157.719 18.92 157.943 18.712C158.175 18.496 158.471 18.388 158.831 18.388C159.183 18.388 159.471 18.496 159.695 18.712C159.927 18.92 160.043 19.184 160.043 19.504C160.043 19.816 159.927 20.08 159.695 20.296C159.471 20.504 159.183 20.608 158.831 20.608ZM159.851 21.304V28H157.799V21.304H159.851ZM163.39 19.12V28H161.338V19.12H163.39ZM173.421 21.232C174.253 21.232 174.913 21.484 175.401 21.988C175.897 22.492 176.145 23.192 176.145 24.088V28H174.105V24.364C174.105 23.932 173.989 23.6 173.757 23.368C173.533 23.128 173.221 23.008 172.821 23.008C172.421 23.008 172.105 23.128 171.873 23.368C171.649 23.6 171.537 23.932 171.537 24.364V28H169.497V24.364C169.497 23.932 169.381 23.6 169.149 23.368C168.925 23.128 168.613 23.008 168.213 23.008C167.813 23.008 167.497 23.128 167.265 23.368C167.041 23.6 166.929 23.932 166.929 24.364V28H164.877V21.304H166.929V22.144C167.137 21.864 167.409 21.644 167.745 21.484C168.081 21.316 168.461 21.232 168.885 21.232C169.389 21.232 169.837 21.34 170.229 21.556C170.629 21.772 170.941 22.08 171.165 22.48C171.397 22.112 171.713 21.812 172.113 21.58C172.513 21.348 172.949 21.232 173.421 21.232ZM183.892 24.544C183.892 24.736 183.88 24.936 183.856 25.144H179.212C179.244 25.56 179.376 25.88 179.608 26.104C179.848 26.32 180.14 26.428 180.484 26.428C180.996 26.428 181.352 26.212 181.552 25.78H183.736C183.624 26.22 183.42 26.616 183.124 26.968C182.836 27.32 182.472 27.596 182.032 27.796C181.592 27.996 181.1 28.096 180.556 28.096C179.9 28.096 179.316 27.956 178.804 27.676C178.292 27.396 177.892 26.996 177.604 26.476C177.316 25.956 177.172 25.348 177.172 24.652C177.172 23.956 177.312 23.348 177.592 22.828C177.88 22.308 178.28 21.908 178.792 21.628C179.304 21.348 179.892 21.208 180.556 21.208C181.204 21.208 181.78 21.344 182.284 21.616C182.788 21.888 183.18 22.276 183.46 22.78C183.748 23.284 183.892 23.872 183.892 24.544ZM181.792 24.004C181.792 23.652 181.672 23.372 181.432 23.164C181.192 22.956 180.892 22.852 180.532 22.852C180.188 22.852 179.896 22.952 179.656 23.152C179.424 23.352 179.28 23.636 179.224 24.004H181.792Z" fill="black"/>
<g clip-path="url(#clip0_701_24)">
<path d="M42.3999 11.1341C44.5892 12.9964 46.7784 14.8603 48.9568 16.7349C46.8076 18.656 44.5732 20.4923 42.3904 22.38C42.3955 21.1169 42.3824 19.8545 42.3949 18.5921C41.0102 18.5943 39.6255 18.5842 38.2415 18.5966C37.5762 18.598 36.9501 18.9284 36.5019 19.4053C32.5264 23.5198 28.5429 27.6272 24.5689 31.7432C24.1272 32.199 23.5114 32.4968 22.8679 32.491C20.3398 32.507 17.8109 32.4787 15.2836 32.5076C14.3441 32.4801 13.5381 31.6337 13.5389 30.704C13.4922 29.696 14.3857 28.8271 15.3812 28.7973C17.389 28.7785 19.399 28.8082 21.4068 28.7836C22.1392 28.7792 22.7842 28.3546 23.2462 27.8184C27.1612 23.7648 31.0806 19.7146 34.9978 15.6624C35.438 15.1848 36.0706 14.8906 36.7236 14.8761C38.614 14.8681 40.5052 14.8834 42.3949 14.8688C42.3911 13.624 42.3809 12.3791 42.3999 11.1341Z" fill="#BA000D"/>
<path d="M14.9487 14.8675C17.6816 14.8449 20.4241 14.8696 23.1614 14.8617C23.8668 14.8305 24.5854 15.0936 25.0649 15.6175C26.2025 16.7814 27.3278 17.9589 28.4589 19.1291C28.9223 19.6002 29.1767 20.2857 29.0156 20.9393C28.84 21.7393 28.0697 22.3755 27.2403 22.3676C26.6771 22.393 26.1581 22.1075 25.7434 21.7531C24.968 20.9314 24.2246 20.0777 23.4369 19.2668C22.9858 18.8103 22.3372 18.5849 21.7002 18.5936C19.6604 18.5849 17.6205 18.5994 15.5806 18.5871C14.7687 18.5625 13.9029 18.1812 13.6034 17.3798C13.1421 16.3595 13.8475 15.0639 14.9487 14.8675Z" fill="#BA000D"/>
<path d="M31.6225 25.28C32.3272 24.7199 33.432 24.8011 34.0537 25.4481C34.9055 26.3162 35.7393 27.2025 36.592 28.0699C37.0351 28.5344 37.6735 28.7996 38.317 28.7931C39.6769 28.788 41.0368 28.7989 42.3975 28.7866C42.3836 27.5467 42.3924 26.3067 42.3946 25.0669C44.6006 26.9249 46.7898 28.8025 48.9755 30.6844C46.7928 32.5649 44.5983 34.4316 42.4003 36.294C42.3726 35.0258 42.4032 33.757 42.3865 32.4888C40.4939 32.4714 38.6013 32.4873 36.7086 32.4808C36.0564 32.475 35.4281 32.1656 34.9916 31.6902C33.7724 30.4388 32.5334 29.2069 31.3266 27.9446C30.6277 27.1859 30.7829 25.8735 31.6225 25.28Z" fill="#BA000D"/>
</g>
<defs>
<clipPath id="clip0_701_24">
<rect x="13.4355" y="11.0645" width="35.5645" height="25.2903" rx="5" fill="white"/>
</clipPath>
</defs>
</svg>
